<?xml version="1.0" standalone="no"?>
<!DOCTYPE svg PUBLIC "-//W3C//DTD SVG 20010904//EN"
 "http://www.w3.org/TR/2001/REC-SVG-20010904/DTD/svg10.dtd">
<svg version="1.0" xmlns="http://www.w3.org/2000/svg"
 width="343.000000pt" height="67.000000pt" viewBox="0 0 343.000000 67.000000"
 preserveAspectRatio="xMidYMid meet">

<g transform="translate(0.000000,67.000000) scale(0.100000,-0.100000)"
fill="#000000" stroke="none">
<path d="M223 560 c-22 -27 -23 -35 -23 -250 l0 -221 48 3 47 3 5 143 5 143
79 -146 80 -146 45 3 46 3 3 225 c1 124 0 235 -3 248 -5 19 -12 22 -50 22
l-45 0 0 -139 c0 -77 -3 -142 -8 -145 -4 -2 -39 55 -77 127 -57 105 -76 133
-100 143 -28 10 -32 9 -52 -16z"/>
<path d="M720 385 c0 -228 5 -252 61 -281 24 -12 54 -15 126 -12 92 3 95 4
124 36 l29 32 0 216 0 215 -47 -3 -48 -3 -5 -200 -5 -200 -62 -3 c-35 -2 -64
-2 -65 0 -1 2 -4 93 -7 203 l-6 200 -47 3 -48 3 0 -206z"/>
<path d="M1190 545 l0 -45 55 0 55 0 0 -205 0 -205 50 0 50 0 0 205 0 204 58
3 57 3 0 40 0 40 -162 3 -163 2 0 -45z"/>
<path d="M1640 340 l0 -250 50 0 50 0 0 95 0 95 30 0 c28 0 33 -6 74 -95 l45
-95 50 0 c28 0 51 4 51 9 0 5 -19 48 -41 95 l-41 86 31 35 c29 34 31 40 31
118 0 136 -28 157 -210 157 l-120 0 0 -250z m228 102 c4 -70 -7 -82 -74 -82
l-54 0 0 70 0 71 63 -3 62 -3 3 -53z"/>
<path d="M2140 341 l0 -251 50 0 50 0 -2 248 -3 247 -47 3 -48 3 0 -250z"/>
<path d="M2464 574 c-53 -26 -59 -49 -59 -238 0 -149 2 -174 18 -198 25 -36
65 -48 159 -48 150 0 168 26 168 250 0 170 -10 209 -59 234 -41 21 -184 21
-227 0z m174 -86 c17 -17 17 -279 0 -296 -7 -7 -36 -12 -65 -12 -41 0 -54 4
-63 19 -13 26 -13 256 0 282 9 15 22 19 63 19 29 0 58 -5 65 -12z"/>
<path d="M2910 341 l0 -251 50 0 50 0 0 153 0 152 76 -140 c42 -77 81 -146 87
-153 6 -8 26 -12 51 -10 l41 3 0 245 0 245 -47 3 -47 3 -3 -151 -3 -151 -80
148 -80 148 -47 3 -48 3 0 -250z"/>
</g>
</svg>
